<?xml version="1.0" encoding="UTF-8" standalone="no"?>
<svg width="50px" height="50px" viewBox="0 0 50 50" version="1.1" xmlns="http://www.w3.org/2000/svg" xmlns:xlink="http://www.w3.org/1999/xlink" xmlns:sketch="http://www.bohemiancoding.com/sketch/ns">
    <!-- Generator: Sketch 3.4.4 (17249) - http://www.bohemiancoding.com/sketch -->
    <title>dribbble_copyrighted</title>
    <desc>Created with Sketch.</desc>
    <defs></defs>
    <g id="v2" stroke="none" stroke-width="1" fill="none" fill-rule="evenodd" sketch:type="MSPage">
        <g id="index" sketch:type="MSArtboardGroup" transform="translate(-773.000000, -3364.000000)">
            <g id="footy" sketch:type="MSLayerGroup" transform="translate(540.000000, 3282.000000)">
                <g id="oh-not-my-buttons" transform="translate(0.000000, 83.000000)" sketch:type="MSShapeGroup">
                    <g id="dribbble_copyrighted" transform="translate(234.000000, 0.000000)">
                        <g id="Layer_1">
                            <path d="M39,0 L9,0 C4.028,0 0,4.028 0,9 L0,39 C0,43.972 4.028,48 9,48 L39,48 C43.972,48 48,43.972 48,39 L48,9 C48,4.028 43.972,0 39,0 L39,0 Z" id="Shape" stroke="#6F6F6F" stroke-width="2"></path>
                            <path d="M35.134,26.849 C34.219,26.563 33.227,27.071 32.937,27.994 C31.865,31.397 29.919,34.933 29.035,35.129 C28.373,35.129 27.421,34.578 26.481,33.283 C28.666,28.68 29.809,22.9 29.809,19.045 C29.809,8.268 27.039,6.006 24.714,6.006 C19.813,6.006 19.757,18.701 19.757,18.829 C19.757,20.321 19.812,21.707 19.915,22.997 C19.24,22.754 18.465,22.588 17.608,22.588 C12.575,22.588 10.283,27.466 10.283,31.998 C10.283,36.272 12.72,40.586 18.167,40.586 C20.736,40.586 22.907,38.931 24.653,36.46 C26.201,38.041 27.823,38.633 29.036,38.633 C32.848,38.633 35.372,31.929 36.28,29.047 C36.57,28.124 36.057,27.14 35.134,26.849 L35.134,26.849 Z M18.165,37.082 C14.212,37.082 13.785,33.526 13.785,31.998 C13.785,31.757 13.829,26.093 17.606,26.093 C19.098,26.093 20.243,27.226 20.244,27.228 C20.329,27.317 20.422,27.394 20.519,27.462 C21.008,29.899 21.699,31.849 22.495,33.394 C21.188,35.62 19.672,37.082 18.165,37.082 L18.165,37.082 Z M24.495,28.966 C23.765,26.495 23.261,23.175 23.261,18.829 C23.261,14.823 24.129,11.055 24.851,9.77 C25.403,10.591 26.305,13.163 26.305,19.044 C26.305,22.164 25.603,25.788 24.495,28.966 L24.495,28.966 Z" id="Shape" fill="#6F6F6F"></path>
                        </g>
                    </g>
                </g>
            </g>
        </g>
    </g>
</svg>