<?xml version="1.0" encoding="UTF-8" standalone="no"?>
<svg width="50px" height="50px" viewBox="0 0 50 50" version="1.1" xmlns="http://www.w3.org/2000/svg" xmlns:xlink="http://www.w3.org/1999/xlink" xmlns:sketch="http://www.bohemiancoding.com/sketch/ns">
    <!-- Generator: Sketch 3.4.4 (17249) - http://www.bohemiancoding.com/sketch -->
    <title>instagram</title>
    <desc>Created with Sketch.</desc>
    <defs></defs>
    <g id="v2" stroke="none" stroke-width="1" fill="none" fill-rule="evenodd" sketch:type="MSPage">
        <g id="index" sketch:type="MSArtboardGroup" transform="translate(-851.000000, -3364.000000)" stroke-width="2" stroke="#6F6F6F">
            <g id="footy" sketch:type="MSLayerGroup" transform="translate(540.000000, 3282.000000)">
                <g id="oh-not-my-buttons" transform="translate(0.000000, 83.000000)" sketch:type="MSShapeGroup">
                    <g id="instagram" transform="translate(312.000000, 0.000000)">
                        <g id="Layer_1">
                            <path d="M39.5,11 C38.674,11 38,10.326 38,9.5 L38,6.5 C38,5.674 38.674,5 39.5,5 L42.5,5 C43.326,5 44,5.674 44,6.5 L44,9.5 C44,10.326 43.326,11 42.5,11 L39.5,11 L39.5,11 Z" id="Shape"></path>
                            <g id="Group" transform="translate(10.000000, 10.000000)">
                                <path d="M14,4 C19.522,4 24,8.476 24,14 C24,19.524 19.522,24 14,24 C8.478,24 4,19.524 4,14 C4,8.476 8.478,4 14,4 L14,4 Z M14,0 C6.281,0 0,6.281 0,14 C0,21.719 6.281,28 14,28 C21.719,28 28,21.719 28,14 C28,6.281 21.719,0 14,0 L14,0 L14,0 Z" id="Shape"></path>
                            </g>
                            <path d="M9,48 L39,48 C43.972,48 48,43.972 48,39 L48,9 C48,4.028 43.972,0 39,0 L9,0 C4.028,0 0,4.028 0,9 L0,39 C0,43.972 4.028,48 9,48 L9,48 Z" id="Shape"></path>
                            <path d="M35.562,15 L44,15 L44,38.773 C44,41.655 41.655,44 38.773,44 L9.227,44 C6.345,44 4,41.655 4,38.773 L4,15 L12.375,15" id="Shape"></path>
                        </g>
                    </g>
                </g>
            </g>
        </g>
    </g>
</svg>