<?xml version="1.0" encoding="UTF-8" standalone="no"?>
<svg width="50px" height="50px" viewBox="0 0 50 50" version="1.1" xmlns="http://www.w3.org/2000/svg" xmlns:xlink="http://www.w3.org/1999/xlink" xmlns:sketch="http://www.bohemiancoding.com/sketch/ns">
    <!-- Generator: Sketch 3.4.4 (17249) - http://www.bohemiancoding.com/sketch -->
    <title>linkedin</title>
    <desc>Created with Sketch.</desc>
    <defs></defs>
    <g id="v2" stroke="none" stroke-width="1" fill="none" fill-rule="evenodd" sketch:type="MSPage">
        <g id="index" sketch:type="MSArtboardGroup" transform="translate(-617.000000, -3364.000000)" stroke="#6F6F6F">
            <g id="footy" sketch:type="MSLayerGroup" transform="translate(540.000000, 3282.000000)">
                <g id="oh-not-my-buttons" transform="translate(0.000000, 83.000000)" sketch:type="MSShapeGroup">
                    <g id="linkedin" transform="translate(78.000000, 0.000000)">
                        <g id="Layer_1">
                            <g id="Group" stroke-width="2">
                                <path d="M39,0 L9,0 C4,0 0,4 0,9 L0,39 C0,44 4,48 9,48 L39,48 C44,48 48,44 48,39 L48,9 C48,4 44,0 39,0 L39,0 Z" id="Shape"></path>
                            </g>
                            <path d="M7,18 L15,18 L15,33.9 L15,41 L7,41 L7,18 Z" id="Shape" stroke-width="2"></path>
                            <path d="M11,15.5 L11,15.5 C8.6,15.5 7,13.8 7,11.7 C7,9.6 8.6,8 11,8 C13.4,8 14.9,9.6 15,11.7 C15,13.8 13.5,15.5 11,15.5 L11,15.5 Z" id="Shape" stroke-width="1.9758"></path>
                            <path d="M41,41 L33,41 L33,28 C33,27.1 32.9,24 29.5,24 C26.5,24 26,26.9 26,28 L26,41 L18,41 L18,18 L26,18 L26,21.1 C26,21.1 27.6,18 32.3,18 C37.1,18 41,21.3 41,28 L41,41 L41,41 Z" id="Shape" stroke-width="2"></path>
                        </g>
                    </g>
                </g>
            </g>
        </g>
    </g>
</svg>