<?xml version="1.0" encoding="UTF-8" standalone="no"?>
<svg width="50px" height="50px" viewBox="0 0 50 50" version="1.1" xmlns="http://www.w3.org/2000/svg" xmlns:xlink="http://www.w3.org/1999/xlink" xmlns:sketch="http://www.bohemiancoding.com/sketch/ns">
    <!-- Generator: Sketch 3.4.4 (17249) - http://www.bohemiancoding.com/sketch -->
    <title>message</title>
    <desc>Created with Sketch.</desc>
    <defs></defs>
    <g id="v2" stroke="none" stroke-width="1" fill="none" fill-rule="evenodd" sketch:type="MSPage">
        <g id="index" sketch:type="MSArtboardGroup" transform="translate(-539.000000, -3364.000000)" stroke="#6F6F6F">
            <g id="footy" sketch:type="MSLayerGroup" transform="translate(540.000000, 3282.000000)">
                <g id="oh-not-my-buttons" transform="translate(0.000000, 83.000000)" sketch:type="MSShapeGroup">
                    <g id="message">
                        <g id="Layer_1" transform="translate(11.000000, 14.000000)">
                            <rect id="Rectangle-path" stroke-width="1.1088" x="0" y="0" width="28" height="20"></rect>
                            <path d="M18.8749167,10.3894118 L27.9358333,17.6135294" id="Shape" stroke-width="1.1088"></path>
                            <path d="M0.0641666667,17.6129412 L9.51766667,10.0747059" id="Shape" stroke-width="1.1088"></path>
                            <path d="M0.0641666667,2.38411765 C0.0641666667,2.38411765 10.7975,11.8176471 11.6719167,12.5852941 C12.5463333,13.3529412 13.4569167,13.5294118 14,13.5294118 C14.5430833,13.5294118 15.4536667,13.3535294 16.3280833,12.5858824 C17.2025,11.8182353 27.9358333,2.38470588 27.9358333,2.38470588" id="Shape" stroke-width="1.10652696"></path>
                        </g>
                        <path d="M39,0 L9,0 C4.028,0 0,4.028 0,9 L0,39 C0,43.972 4.028,48 9,48 L39,48 C43.972,48 48,43.972 48,39 L48,9 C48,4.028 43.972,0 39,0 L39,0 Z" id="Shape" stroke-width="2"></path>
                    </g>
                </g>
            </g>
        </g>
    </g>
</svg>