<?xml version="1.0" encoding="UTF-8" standalone="no"?>
<svg width="50px" height="50px" viewBox="0 0 50 50" version="1.1" xmlns="http://www.w3.org/2000/svg" xmlns:xlink="http://www.w3.org/1999/xlink" xmlns:sketch="http://www.bohemiancoding.com/sketch/ns">
    <!-- Generator: Sketch 3.4.4 (17249) - http://www.bohemiancoding.com/sketch -->
    <title>twitter</title>
    <desc>Created with Sketch.</desc>
    <defs></defs>
    <g id="v2" stroke="none" stroke-width="1" fill="none" fill-rule="evenodd" sketch:type="MSPage">
        <g id="index" sketch:type="MSArtboardGroup" transform="translate(-695.000000, -3364.000000)">
            <g id="footy" sketch:type="MSLayerGroup" transform="translate(540.000000, 3282.000000)">
                <g id="oh-not-my-buttons" transform="translate(0.000000, 83.000000)" sketch:type="MSShapeGroup">
                    <g id="twitter" transform="translate(156.000000, 0.000000)">
                        <g id="Layer_1" transform="translate(9.000000, 11.000000)" fill="#6F6F6F">
                            <path d="M30,2.875 C28.875,3.375 27.75,3.75 26.5,3.875 C27.75,3.125 28.75,1.875 29.25,0.5 C28,1.25 26.75,1.75 25.375,2 C24.125,0.75 22.5,0 20.75,0 C17.375,0 14.625,2.75 14.625,6.125 C14.625,6.625 14.625,7.125 14.75,7.5 C9.625,7.25 5.125,4.875 2.125,1.125 C1.5,2 1.25,3.125 1.25,4.25 C1.25,6.375 2.375,8.25 4,9.375 C3,9.25 2,9 1.25,8.625 C1.25,8.625 1.25,8.625 1.25,8.75 C1.25,11.75 3.375,14.25 6.125,14.75 C5.625,14.875 5.125,15 4.5,15 C4.125,15 3.75,15 3.375,14.875 C4.125,17.375 6.375,19.125 9.125,19.125 C7,20.75 4.375,21.75 1.5,21.75 C1,21.75 0.5,21.75 0,21.625 C2.75,23.375 6,24.375 9.375,24.375 C20.75,24.375 26.875,15 26.875,6.875 L26.875,6.125 C28.125,5.25 29.125,4.125 30,2.875" id="Shape"></path>
                        </g>
                        <g id="Layer_1" stroke="#6F6F6F" stroke-width="2">
                            <path d="M39,0 L9,0 C4.028,0 0,4.028 0,9 L0,39 C0,43.972 4.028,48 9,48 L39,48 C43.972,48 48,43.972 48,39 L48,9 C48,4.028 43.972,0 39,0 L39,0 Z" id="Shape"></path>
                        </g>
                    </g>
                </g>
            </g>
        </g>
    </g>
</svg>